<svg xmlns="http://www.w3.org/2000/svg" viewBox="0 0 1024 1024">
   <circle cx="512" cy="512" r="512" style="fill:#ff0000"/>
   <path d="M190 415.48v78.672h41.52v-42.978h97.98v-35.695zm175.193 0v193.04h41.523v-78.674h44.436c12.02 0 22.217-1.456 30.958-4.734 8.377-3.278 15.298-7.65 20.761-12.749 5.464-5.463 9.105-11.29 11.655-18.211 2.55-6.92 3.644-13.84 3.644-21.125 0-7.284-1.095-14.568-3.644-21.125-2.185-7.284-6.192-13.475-11.291-18.575-5.464-5.463-12.383-9.47-20.76-12.748-8.377-3.643-18.94-5.1-30.96-5.1zm179.564 0v78.672h41.886v-42.978h97.978v-35.695zm169.73 0v193.04h139.865v-35.694h-97.978V415.48Zm-308.136 35.694h33.144c4.735 0 9.471.364 14.206.728 4.371.365 8.376 1.458 12.018 3.279 3.278 1.457 6.193 3.641 8.378 6.555 2.186 2.914 3.279 6.557 3.279 10.928 0 4.37-1.093 8.376-3.279 10.926-2.185 2.913-4.735 5.1-8.378 6.556-3.278 1.457-7.283 2.55-12.018 3.279-4.37.364-9.107.727-14.206.727h-33.144zm-174.83 42.98v35.694h89.6v-35.694Zm0 35.694H190v78.673h139.499v-35.695H231.52Zm355.122-35.694v35.694h89.6v-35.694Zm-41.886 35.692v78.675h41.523v-78.675Z" style="fill:#fff"/>
</svg>
